<?xml version="1.0" standalone="no"?>
<!DOCTYPE svg PUBLIC "-//W3C//DTD SVG 20010904//EN"
 "http://www.w3.org/TR/2001/REC-SVG-20010904/DTD/svg10.dtd">
<svg version="1.0" xmlns="http://www.w3.org/2000/svg"
 width="142.000000pt" height="132.000000pt" viewBox="0 0 142.000000 132.000000"
 preserveAspectRatio="xMidYMid meet">

<g transform="translate(0.000000,132.000000) scale(0.100000,-0.100000)"
fill="#000000" stroke="none">
<path d="M605 1186 c-148 -37 -293 -155 -360 -291 -76 -155 -73 -357 8 -509
42 -79 149 -186 224 -224 92 -47 156 -62 263 -62 147 0 239 30 348 113 64 49
82 80 82 145 0 75 -56 132 -130 132 -36 0 -56 -9 -116 -55 -65 -50 -122 -68
-196 -63 -154 10 -263 126 -262 278 2 234 275 365 450 216 54 -46 76 -56 124
-56 82 0 130 52 130 141 0 51 -2 55 -54 105 -61 59 -147 107 -233 129 -68 18
-208 18 -278 1z m250 -47 c63 -16 145 -50 145 -60 0 -5 -4 -9 -9 -9 -22 0 -71
-54 -82 -89 l-11 -37 -57 19 c-71 24 -167 18 -237 -14 -63 -30 -133 -100 -164
-164 -33 -69 -35 -198 -3 -267 29 -63 97 -134 158 -166 64 -33 187 -42 255
-18 24 8 45 14 45 13 1 -1 11 -22 23 -47 13 -26 35 -53 53 -64 l32 -19 -34
-18 c-101 -55 -260 -67 -379 -30 -204 64 -350 264 -350 481 0 137 48 250 149
351 102 102 208 147 351 148 41 1 93 -4 115 -10z m249 -139 c13 -12 20 -33 20
-56 0 -70 -81 -108 -136 -64 -32 24 -39 59 -22 99 22 53 95 64 138 21z m-8
-584 c59 -50 22 -146 -56 -146 -76 0 -111 90 -55 145 31 32 75 32 111 1z"/>
</g>
</svg>
